<svg version="1" xmlns="http://www.w3.org/2000/svg" width="377.333" height="377.333" viewBox="0 0 283.000000 283.000000"><path d="M81.2 48.7c-3.2 6.2-4 25.2-1.7 38.8l1.6 8.8-4.6 6.9c-15.6 23.1-22.8 54.7-18.1 79 5.4 28.1 28.1 46 60.1 47.5 28.1 1.4 58.2-13.8 73-36.7 6-9.3 12.5-21.4 12.5-23.3 0-4-3.2-1.1-7.5 7-10.7 19.7-19.1 28.6-34 35.9-13.8 6.7-22.4 8.6-39 8.8-15 .1-22.4-1.2-31.4-5.7-22.4-11.1-27.1-43-12.6-84.7 2-5.8 4.6-12.2 5.7-14.2l2.1-3.7 3.8 6c12.1 18.7 32.6 28.3 60.4 28.3 15.5 0 21.9-1.5 35.1-8 20.5-10.1 33.5-31.8 30.4-50.9-3.4-20.8-19.7-33.4-47.2-36.5-28.2-3.2-55.7 7.3-76.2 29-7.2 7.7-6.6 7.8-8.1-1.3-.5-3.4-.7-23.4-.2-29.7.2-3-2.7-4-4.1-1.3zm95.1 12.8c9.4 2 15.3 5.1 21.8 11.5 7.1 7.1 9.4 13.5 8.7 24.9-.6 10.7-4.6 19.2-13 27.4-11.7 11.6-24 16-43.8 15.9-25.8-.2-43.9-9.7-54.4-28.4l-3.8-6.8 2.3-3.2c10.6-15.2 28.6-30.9 42.3-36.8 13.4-5.7 27-7.3 39.9-4.5z"/></svg>